<svg width="75" height="75" viewBox="0 0 75 75" fill="none" xmlns="http://www.w3.org/2000/svg">
<rect width="75" height="75" rx="37.5" fill="#131414"/>
<path fill-rule="evenodd" clip-rule="evenodd" d="M16.5496 35.879C27.4816 31.9029 34.7714 29.2816 38.4188 28.0152C48.8329 24.3991 50.9969 23.771 52.4074 23.7502C52.7176 23.7457 53.4112 23.8098 53.8605 24.1142C54.2399 24.3712 54.3442 24.7183 54.3942 24.962C54.4441 25.2056 54.5063 25.7607 54.4569 26.1944C53.8925 31.1444 51.4506 43.157 50.2083 48.7012C49.6827 51.0471 48.6476 51.8337 47.6455 51.9107C45.4678 52.078 43.8142 50.7093 41.705 49.5551C38.4045 47.749 36.5399 46.6246 33.3363 44.8622C29.6338 42.8254 32.034 41.706 34.144 39.8765C34.6962 39.3977 44.2911 32.112 44.4768 31.4511C44.5001 31.3684 44.5216 31.0603 44.3024 30.8976C44.0831 30.7349 43.7595 30.7906 43.5259 30.8348C43.1949 30.8975 37.9223 33.8068 27.7082 39.5626C26.2116 40.4205 24.856 40.8386 23.6415 40.8166C22.3025 40.7925 19.727 40.1847 17.8123 39.6651C15.4638 39.0278 13.5973 38.6909 13.7599 37.6086C13.8445 37.0448 14.7744 36.4683 16.5496 35.879Z" fill="white"/>
</svg>
