<svg width="75" height="75" viewBox="0 0 75 75" fill="none" xmlns="http://www.w3.org/2000/svg">
<rect width="75" height="75" rx="37.5" fill="#131414"/>
<path fill-rule="evenodd" clip-rule="evenodd" d="M57.627 26.413C57.9188 25.4693 57.627 24.7744 56.2295 24.7744H51.6152C50.441 24.7744 49.8996 25.3742 49.6061 26.0362C49.6061 26.0362 47.2594 31.5606 43.9354 35.149C42.8596 36.1895 42.3709 36.5197 41.7838 36.5197C41.4902 36.5197 41.049 36.1895 41.049 35.244V26.413C41.049 25.2791 40.7256 24.7744 39.7482 24.7744H32.492C31.759 24.7744 31.3178 25.2999 31.3178 25.7994C31.3178 26.8728 32.9807 27.1217 33.1512 30.1432V36.7081C33.1512 38.1479 32.8822 38.4089 32.2951 38.4089C30.7307 38.4089 26.925 32.8587 24.6662 26.5081C24.2285 25.2722 23.7855 24.7744 22.6061 24.7744H17.9883C16.6699 24.7744 16.4062 25.3742 16.4062 26.0362C16.4062 27.2151 17.9707 33.0713 23.6924 40.8168C27.5068 46.106 32.877 48.9736 37.7689 48.9736C40.7027 48.9736 41.0648 48.3375 41.0648 47.2399V43.2419C41.0648 41.968 41.3426 41.7139 42.2725 41.7139C42.958 41.7139 44.1305 42.0457 46.8691 44.5953C49.998 47.6185 50.5131 48.9736 52.2744 48.9736H56.8887C58.207 48.9736 58.868 48.3375 58.4883 47.0792C58.0699 45.8277 56.5758 44.0111 54.5947 41.8556C53.5189 40.6284 51.9053 39.306 51.4148 38.644C50.7311 37.7953 50.9262 37.4168 51.4148 36.6614C51.4148 36.6614 57.0398 29.011 57.6252 26.413H57.627Z" fill="white"/>
</svg>
